<svg xmlns="http://www.w3.org/2000/svg" xml:space="preserve" baseProfile="tiny-ps" version="1.2" viewBox="0 0 652 652"><path fill="#FFF" d="M415 653H1V1h652v652H415M88.178 303.918c-2.72.325-5.44.65-8.867.976-1.5.343-3.001.687-5.138 1.067-.721.423-1.442.846-2.849 1.27-1.373 2.287-3.809 4.521-3.925 6.87-.397 8.001.025 16.043.315 24.91 2.47.106 4.941.212 8.035-.126.11-6.408.558-12.834.214-19.217-.224-4.17.773-6.903 5.727-8.103 2.817-.4 5.635-.799 9.043-1.449 2.57-2.92 1.285-4.736-2.555-6.198m8.194 2.584c.06.205.119.41-.054 1.514.082 9.265.164 18.53.03 28.318.087.545.173 1.09.137 2.302 2.196.576 4.379 1.441 6.596 1.542.618.028 1.943-2.217 1.918-3.398-.224-10.835-.69-21.664-1.017-32.497-.018-.605.805-1.223.818-1.844.042-1.992-.113-3.987-.192-5.98-2.733.115-5.502.045-8.15.579-.338.068-.068 3.286-.03 5.043.027 1.28.135 2.557-.056 4.42m521.947-4.725c.123-7.87-.814-8.737-8.003-6.504-.446 2.906-.893 5.813-2.084 8.64-1.334 1.056-2.667 2.112-4.78 3.43-2.115-3.778-5.683-3.83-9.278-3.43-3.065.341-6.215.657-9.112 1.627-6.043 2.024-7.637 4.637-7.641 11.167-.004 6.483.082 12.967-.045 19.448-.063 3.208 1.24 4.444 4.43 4.473 3.248.029 4.454-1.26 4.368-4.461-.15-5.648-.046-11.303-.044-16.954.002-6.302.987-7.396 7.444-7.57 3.325-.091 6.725.445 8.955-2.967.09-.14 1.488.575 2.405 1.606 1.577.531 3.154 1.063 4.733 2.547-.006 7.481-.101 14.964.051 22.442.034 1.652.776 4.591 1.483 4.682 2.134.275 4.41-.56 7.064-1.809V311.57c3 0 5.135.047 7.269-.014 2.146-.06 4.29-.23 6.907-.133.573-1.16 1.146-2.32 1.882-4.213-1.117-1.04-2.233-2.081-4.12-3.312-4.037-.436-8.075-.872-11.884-2.121m-288.047 9.82c-.16 1.025-.321 2.05-1.38 3.116-3.952-.078-7.904-.155-11.801-1.104-.35-8.797-.72-17.594-1.044-26.392-.673-18.266-1.478-36.528-1.94-54.799-.545-21.623-.819-43.253-1.118-64.88-.04-2.845-.24-4.735-3.94-4.67-3.582.063-5.015 1.142-5.057 4.904-.174 15.464-.563 30.926-.967 46.387-.195 7.468-.628 14.93-.9 22.397-1.027 28.057-2.037 56.115-3.042 84.172-.386 10.796-.699 21.594-1.126 32.387a835.226 835.226 0 0 1-1.038 19.892c-1.283 20.193-2.54 40.39-3.964 60.573-.747 10.578-1.91 21.127-2.723 31.701-.573 7.45-.83 14.924-1.318 22.382-.181 2.77.448 4.23 3.704 4.407 6.277.34 12.517 1.543 18.791 1.717 5.722.159 11.468-.571 17.566-.93-1.028-10.762-2.132-20.784-2.912-30.83-1.44-18.517-2.885-37.037-3.966-55.577-1.276-21.878-2.168-43.78-2.3-65.903 4.423.116 8.845.231 13.208 1.283 1.42 18.889 2.516 37.809 4.34 56.659 2.27 23.458 5.093 46.864 7.777 70.28.804 7.022 1.943 14.006 3.124 22.392 11.796-4.076 22.594-7.781 33.371-11.547 3.133-1.094 2.36-3.405 1.724-5.78-4.944-18.467-9.883-36.936-14.694-55.437-1.268-4.873-2.084-9.862-3.271-15.586 4.05 0 7.037.28 9.95-.066 4.28-.509 6.232 1.158 7.323 5.314 3.632 13.826 7.527 27.584 11.5 41.316 1.918 6.627 4.235 13.139 6.806 21.037 8.327-6.433 15.662-12.324 23.263-17.849 2.61-1.896 2.798-3.395 1.536-6.174-14.605-32.163-26.864-65.22-37.102-99.016-3.564-11.763-6.545-23.702-8.862-35.769 4.393.102 8.785.204 13.17 1.13.206 1.135.267 2.323.642 3.4 9.912 28.515 19.585 57.119 29.928 85.477 4.293 11.77 10.031 23.011 15.475 35.314 1.853-1.679 3.207-2.584 4.148-3.807 9.845-12.796 19.028-26.027 24.822-41.235 6.27-16.457 11.686-33.153 12.91-51.293 7.3-.03 14.614.225 21.894-.16 9.048-.477 15.866-3.496 14.725-14.61-.304-2.956-.046-5.969-.046-8.955 0-6.651-1.39-9.023-7.504-11.197-2.864-1.019-6.014-1.558-9.06-1.676-7.287-.284-14.589-.188-22.022-1.007-.259-.788-.634-1.559-.76-2.368-5.352-34.46-21.012-63.784-44.97-88.721-10.606-11.041-22.723-20.529-36.273-27.73-10.293-5.468-21.2-9.781-33.132-15.198 6.17 46.72 14.642 91.034 25.304 134.914-4.31-.078-8.62-.156-12.943-1.049-.195-1.48-.244-2.998-.607-4.436-10.419-41.233-16.949-83.17-22.32-125.293-.905-7.09-1.28-6.981-9.604-7.523l4.76 53.096H336.7c-1.296-16.97-2.658-33.642-3.773-50.33-.245-3.668-1.019-5.909-5.388-5.316-.417.114-.834.228-2.074.491-.03 9.265-.061 18.53-.566 28.11.182.995.363 1.99.291 3.916.386 7.253.772 14.505.663 22.127.201 1.305.402 2.611.349 4.85.38 5.927.76 11.853.64 18.144.208 1.304.416 2.607.37 4.808.377 5.276.755 10.552.633 16.194.213 1.296.426 2.592.381 4.807.373 4.61.746 9.219.62 14.193.217 1.291.435 2.583.393 4.793.372 4.28.743 8.56.636 13.154.208.982.417 1.963.403 3.855.018.623.036 1.245-.3 2.458.087 1.956.175 3.913.295 6.666m-88.074-17.506c-4.859 1.18-5.515 3.61-2.021 8.642-.219 1.473-.28 2.99-.68 4.412-4.552 16.152-8.401 32.553-13.913 48.374-9.406 26.994-19.895 53.61-29.81 80.429-.657 1.779-1.217 4.834-.289 5.761 7.121 7.117 14.622 13.854 22.86 21.504 1.232-3.314 2.08-5.212 2.65-7.19 4.334-15.009 8.566-30.048 12.985-45.031.444-1.506 1.817-3.755 2.936-3.865 4.506-.445 9.082-.184 14.494-.184-5.412 20.934-10.474 40.879-15.796 60.753-.952 3.556-.493 5.64 3.014 7.108 3.526 1.477 6.796 3.577 10.343 4.988 6.537 2.601 13.195 4.898 20.365 7.528.632-3.72 1.192-6.293 1.491-8.895 1.48-12.858 2.949-25.718 4.312-38.59 1.66-15.668 3.311-31.34 4.78-47.027 1.252-13.387 2.326-26.793 3.321-40.203.984-13.248 1.769-26.51 3.199-40.416 2.588-.213 5.333.027 7.71-.796 1.662-.575 2.82-2.606 4.203-3.986-1.453-1.166-2.752-2.71-4.406-3.383-1.418-.576-3.241-.155-5.324-.556-.544-.493-1.088-.985-.948-1.68 3.39-2.453 2.816-5.039.218-8.633.64-11.611 1.419-23.217 1.89-34.835.843-20.774 1.493-41.556 2.25-62.333.078-2.154.468-4.3.483-6.451.06-8.277.024-16.553.024-24.811-6.789-1.028-8.027.17-8.5 6.466-1.167 15.562-2.561 31.107-3.967 46.65-.527 5.828-5.106 2.42-7.806 3.066-2.97.711-3.688-1.293-3.423-3.884.893-8.752 1.816-17.502 2.608-26.264.664-7.34 1.161-14.694 1.746-22.22-8.55 1.103-8.346 1.154-9.281 7.229-3.434 22.305-6.75 44.634-10.654 66.858-3.016 17.167-6.846 34.19-11.064 51.465m-92.13 9.818h-30.08c0-2.008-.093-3.494.02-4.964.25-3.28-.86-4.904-4.486-4.86-3.773.046-4.322 2.047-4.279 5.134.106 7.478.328 14.973-.028 22.435-.638 13.37 2.192 15.628 14.085 18.276 1.59.354 3.241.547 4.87.583 6.638.148 13.278.206 19.921 1.166 3.173 30.916 12.865 59.305 32.392 84.957 36.753-80.374 58.217-163.802 69.876-250.85-2.11.568-3.078.703-3.94 1.078-15.992 6.964-30.623 16.148-43.51 27.872-24.726 22.494-42.053 49.602-50.07 82.305-1.377 5.617-2.562 11.281-4.771 16.868m423.683 29.086c.203-5.284.512-10.566.584-15.85.102-7.53-2.234-11.125-9.604-11.984-9.004-1.049-18.195-1.614-27.223-1.059-11.033.679-14.805 5.637-14.804 16.752v4.5c-.002 8.664 2.777 12.865 11.311 13.951 8.833 1.124 17.87 1.428 26.763.987 4.65-.231 9.964-1.437 12.973-7.297M52.237 335.13c-.23 3.171.201 5.505 4.374 5.517 4.19.011 4.425-2.322 4.4-5.5-.089-10.958-.035-21.918-.035-33.314 5.9 0 11.372-.037 16.843.016 2.575.025 4.617-.26 4.685-3.62.07-3.475-1.794-4.13-4.743-4.116-14.146.07-28.294.053-42.44.011-2.626-.008-4.549.39-4.645 3.69-.105 3.562 1.873 4.097 4.762 4.048 5.442-.094 10.887-.027 16.8-.027l-.001 33.295z"/><path fill="#F3D9AC" d="M479.979 340.855c-.318 17.874-5.734 34.57-12.004 51.027-5.794 15.208-14.977 28.44-24.822 41.235-.94 1.223-2.295 2.128-4.148 3.807-5.444-12.303-11.182-23.545-15.475-35.314-10.343-28.358-20.016-56.962-29.928-85.476-.375-1.078-.436-2.266-.209-3.946 8.366-.66 9.08.025 9.079 7.743-.002 5.157.066 10.315-.03 15.47-.056 3 .317 5.223 4.186 5.209 3.585-.014 4.546-1.679 4.474-4.958-.15-6.817.001-13.64-.059-20.46-.047-5.433-2.944-9.128-8.37-10.11-4.185-.757-8.477-.928-12.72-1.36-11.574-43.72-20.047-88.036-26.216-134.755 11.933 5.417 22.84 9.73 33.132 15.199 13.55 7.2 25.667 16.688 36.274 27.729 23.957 24.937 39.617 54.26 44.97 88.72.125.81.5 1.58.443 2.84-1.738.838-3.154 1.221-4.58 1.568-5.16 1.256-8.094 4.944-8.115 10.423-.04 10.324.015 20.648-.03 30.972-.011 2.577.37 5.261 3.554 4.49 1.876-.453 3.815-2.499 4.77-4.327.785-1.504.16-3.743.16-6.085l5.664.359m-41.948-29.253c2.89.138 5.392-.046 5.313-4.031-.084-4.185-2.968-3.79-5.616-3.631-4.097.244-8.195.59-12.27 1.078-6.014.72-8.914 3.489-9.174 8.49-.31 5.961 2.403 9.958 8.521 10.685 7.366.876 14.86.636 22.258 1.322 2.034.189 5.43 1.771 5.587 3.037.429 3.475-2.41 4.44-5.644 4.407-8.658-.088-17.319-.007-25.978-.047-2.534-.011-4.713.16-4.77 3.534-.06 3.403 1.822 4.186 4.786 4.15 7.326-.091 14.656.086 21.98-.08 3.767-.086 7.573-.41 11.27-1.109 4.257-.804 7.12-5.134 7.427-9.9.328-5.107-1.376-9.075-6.493-10.36-3.782-.951-7.813-1.013-11.747-1.236-4.964-.282-9.963-.118-14.9-.614-1.258-.126-2.339-2.02-3.501-3.103 1.356-.865 2.63-2.253 4.087-2.481 2.6-.407 5.31-.113 8.864-.111zM151.004 303.963c1.273-5.642 2.458-11.306 3.835-16.923 8.017-32.703 25.344-59.811 50.07-82.305 12.887-11.724 27.518-20.908 43.51-27.872.862-.375 1.83-.51 3.94-1.077-11.659 87.047-33.123 170.475-69.876 250.85-19.527-25.653-29.219-54.042-32.107-85.62 10.26-3.77 11.955-4.434 12.591-12.792.29-3.799.05-7.638.048-11.46-.006-7.045-2.609-10.267-9.444-11.793-.886-.198-1.713-.665-2.567-1.008m43.386 36.598c1.666 0 3.335.058 5-.01 8.492-.348 13.189-4.701 13.114-12.11-.07-6.972-4.538-10.519-13.326-10.56-3.333-.015-6.67.094-9.999-.027-3.457-.126-6.947-.234-10.336-.834-1.116-.197-1.964-1.907-2.935-2.925 1.217-.831 2.373-2.246 3.663-2.38 3.297-.343 6.655-.17 9.987-.098 2.683.058 4.522-.546 4.564-3.797.042-3.183-1.581-4.125-4.377-3.905-4.424.346-8.86.604-13.266 1.11-6.212.716-9.062 3.356-9.337 8.324-.334 6.044 2.287 10.056 8.375 10.824 7.193.908 14.51.83 21.772 1.218 2.705.145 6.401-.544 6.32 3.566-.069 3.562-3.154 4.042-6.262 4.007-8.498-.097-17-.007-25.499-.05-2.554-.014-4.667.201-4.74 3.571-.076 3.497 1.91 4.13 4.81 4.1 7.166-.072 14.333-.024 22.472-.024z"/><path fill="#B6B6B6" d="M285.88 312.838c-.871 13.256-1.656 26.518-2.64 39.766-.995 13.41-2.07 26.816-3.322 40.203-1.468 15.688-3.119 31.359-4.779 47.028-1.363 12.87-2.832 25.73-4.312 38.589-.3 2.602-.859 5.175-1.491 8.895-7.17-2.63-13.828-4.927-20.365-7.528-3.547-1.411-6.817-3.51-10.343-4.988-3.507-1.469-3.966-3.552-3.014-7.108 5.322-19.874 10.384-39.819 15.796-60.753-5.412 0-9.988-.26-14.494.184-1.119.11-2.492 2.359-2.936 3.865-4.419 14.983-8.65 30.022-12.985 45.031-.57 1.978-1.418 3.876-2.65 7.19-8.238-7.65-15.739-14.387-22.86-21.504-.928-.927-.368-3.982.29-5.761 9.914-26.819 20.403-53.435 29.809-80.429 5.512-15.82 9.36-32.222 13.912-48.374.401-1.422.462-2.94 1.098-4.895 6.67-.482 12.92-.482 19.304-.482-.258 5.812-.463 10.424-1.1 15.078-5.144-.55-5.115 3.08-5.725 6.059-3.92 19.145-7.78 38.303-11.73 57.442-1.026 4.976-2.297 9.901-3.632 15.607 5.03 0 9.32.22 13.555-.156 1.048-.094 2.53-1.999 2.788-3.278 3.468-17.21 6.755-34.458 10.435-51.806 3.607-.142 3.995-2.303 3.976-4.879-.042-5.657-.015-11.315-.015-16.973V301.99h18.54c.544.492 1.088.984 1.46 1.779-1.945.613-3.717.934-5.493 1.235-5.687.966-9.453 4.671-9.54 9.772-.124 7.137.02 14.278-.053 21.416-.033 3.173 1.392 4.45 4.52 4.496 3.311.048 4.338-1.515 4.28-4.595-.118-6.307-.01-12.618-.057-18.927-.02-2.623.368-4.755 3.774-4.328zM378.86 311.811c3.247 11.859 6.228 23.798 9.792 35.561 10.238 33.795 22.497 66.853 37.102 99.016 1.262 2.779 1.073 4.278-1.536 6.175-7.6 5.524-14.936 11.415-23.263 17.848-2.571-7.898-4.888-14.41-6.806-21.037-3.973-13.732-7.868-27.49-11.5-41.316-1.091-4.156-3.044-5.823-7.323-5.314-2.913.347-5.9.066-9.95.066 1.187 5.724 2.003 10.713 3.27 15.586 4.812 18.501 9.75 36.97 14.695 55.437.636 2.375 1.409 4.686-1.724 5.78-10.777 3.766-21.575 7.47-33.371 11.547-1.181-8.386-2.32-15.37-3.124-22.392-2.684-23.416-5.508-46.822-7.777-70.28-1.824-18.85-2.92-37.77-3.865-57.253 6.325-1.246 12.175-1.899 18.3-2.213 2.953 14.162 5.313 28.055 8.4 41.785 3.002 13.347-.207 10.723 13.792 11.035.166.003.333-.01.499-.007 2.87.032 3.93-1.355 3.254-4.127-.825-3.385-1.726-6.755-2.437-10.164-2.468-11.842-4.868-23.699-7.066-35.862.814-2.481 1.794-4.63 1.906-6.823.254-4.964.08-9.95.079-14.927 0-7.606.932-8.48 8.653-8.121z"/><path fill="#F4DAAE" d="M318.87 340.779c1.059 21.89 1.95 43.792 3.227 65.67 1.08 18.54 2.526 37.06 3.966 55.577.78 10.046 1.884 20.068 2.912 30.83-6.098.359-11.844 1.089-17.566.93-6.274-.174-12.514-1.377-18.79-1.717-3.257-.177-3.886-1.637-3.705-4.407.488-7.458.745-14.932 1.318-22.382.813-10.574 1.976-21.123 2.723-31.7 1.424-20.185 2.681-40.38 3.964-60.574.42-6.626.775-13.258 1.038-19.892.427-10.793.74-21.591 1.126-32.387 1.005-28.057 2.015-56.115 3.041-84.172.273-7.467.706-14.929.9-22.397.405-15.46.794-30.923.968-46.387.042-3.762 1.475-4.84 5.057-4.904 3.7-.065 3.9 1.825 3.94 4.67.3 21.627.573 43.257 1.118 64.88.462 18.271 1.267 36.533 1.94 54.799.324 8.798.695 17.595.624 26.928-1.506.89-2.574 1.314-3.68 1.585-6.31 1.543-9.197 4.46-9.464 9.628-.426 8.264 1.536 11.674 8.201 13.802 2.317.74 4.758 1.09 7.142 1.62z"/><path fill="#B8B7B7" d="M325.372 191.316c.03-9.265.061-18.53.616-27.754.913-.017 1.302-.074 1.691-.131 4.228-.994 5.002 1.247 5.247 4.914 1.115 16.69 2.477 33.362 3.773 50.33h11.628l-4.76-53.095c8.324.542 8.7.433 9.603 7.523 5.372 42.122 11.902 84.06 22.321 125.293.363 1.438.412 2.956.21 4.955-10.964 2.486-13.466 4.611-14.935 12.601-1.62.114-2.867.179-4.278-.139-1.944-3.513-3.723-6.645-5.228-10.079 3.025-.545 5.777-.787 8.82-1.055-.114-1.904-.093-3.39-.305-4.842-1.913-13.128-3.927-26.242-5.786-39.377-1.231-8.7-2.137-17.446-3.484-26.126-.242-1.56-1.716-3.877-2.976-4.139-2.959-.614-6.132-.196-9.787-.196 1.315 11.902 2.402 22.941 3.784 33.943 1.716 13.666 3.675 27.3 5.093 41.005-5.72-.166-11.004-.387-16.289-.608-.017-.622-.035-1.244.18-2.526.104-1.61-.027-2.56-.157-3.511-.372-4.28-.743-8.56-.856-13.528.121-1.949-.016-3.209-.153-4.469-.373-4.609-.746-9.218-.857-14.517.126-1.954-.009-3.219-.144-4.484-.377-5.276-.755-10.552-.866-16.506.132-1.95-.002-3.223-.135-4.495-.38-5.926-.76-11.852-.873-18.475.138-1.973.008-3.248-.123-4.523-.385-7.253-.771-14.505-.893-22.425.15-1.634.034-2.599-.08-3.564z"/><path fill="#B8B8B8" d="M242.948 293.902c3.468-17.087 7.298-34.11 10.314-51.277 3.905-22.224 7.22-44.553 10.654-66.858.935-6.075.732-6.126 9.28-7.229-.584 7.526-1.081 14.88-1.745 22.22-.792 8.762-1.715 17.512-2.608 26.264-.265 2.59.452 4.595 3.423 3.884 2.7-.646 7.279 2.762 7.806-3.066 1.406-15.543 2.8-31.088 3.967-46.65.473-6.296 1.711-7.494 8.5-6.466 0 8.258.035 16.534-.024 24.81-.015 2.152-.405 4.298-.484 6.452-.756 20.777-1.406 41.56-2.249 62.333-.471 11.618-1.25 23.224-2.332 35.343a85.742 85.742 0 0 1-15.546-.267c2.43-20.574 4.864-40.722 7.367-61.443-2.74 0-4.375.002-6.01 0-6.768-.012-6.568.01-7.317 6.81-1.018 9.23-2.413 18.415-3.583 27.628-1.17 9.208-2.26 18.426-3.844 27.727-5.496-.013-10.533-.114-15.57-.215z"/><path fill="#532228" d="M150.536 303.935c1.322.37 2.149.838 3.035 1.036 6.835 1.526 9.438 4.748 9.444 11.794.003 3.82.242 7.66-.048 11.459-.636 8.358-2.331 9.021-12.593 12.358-6.926.136-13.566.078-20.205-.07a25.127 25.127 0 0 1-4.869-.583c-11.893-2.648-14.723-4.906-14.085-18.276.356-7.462.134-14.957.028-22.435-.043-3.087.506-5.088 4.28-5.133 3.625-.045 4.735 1.58 4.485 4.859-.113 1.47-.02 2.956-.02 4.964 10.237 0 20.158 0 30.548.027m.13 28.75c1.213-1.35 3.288-2.592 3.475-4.072.488-3.871.53-7.902-.038-11.754-.232-1.572-2.496-2.845-4.402-4.95h-29.72c0 4.893.065 9.662-.022 14.427-.06 3.373 1.272 5.392 4.801 5.52 8.382.304 16.765.572 25.905.829z"/><path fill="#4D1B21" d="M480.432 340.722c-2.07.03-3.688-.072-6.117-.226 0 2.342.625 4.581-.16 6.085-.955 1.828-2.894 3.874-4.77 4.328-3.185.77-3.565-1.914-3.554-4.491.045-10.324-.01-20.648.03-30.972.021-5.48 2.956-9.167 8.115-10.423 1.426-.347 2.842-.73 4.648-1.187 7.681-.033 14.983-.129 22.27.155 3.046.118 6.196.657 9.06 1.676 6.113 2.174 7.503 4.546 7.504 11.197 0 2.986-.258 6 .046 8.954 1.141 11.115-5.677 14.134-14.725 14.612-7.28.384-14.594.13-22.347.292m-1.343-28.939c-1.609 1.327-4.458 2.53-4.605 4.004-.552 5.52-.221 11.128-.221 17.014 2.611 0 4.707 0 7.723.126 6.47.007 12.944.132 19.411-.014 6.35-.143 7.46-1.39 7.461-7.527 0-2.488-.205-4.998.045-7.461.476-4.694-2.128-6.321-6.154-6.345-7.625-.045-15.25.114-23.66.203z"/><path fill="#501E25" d="M573.485 333.276c-2.743 5.578-8.057 6.784-12.707 7.015-8.893.441-17.93.137-26.763-.987-8.534-1.086-11.313-5.287-11.311-13.952v-4.499c-.001-11.115 3.771-16.073 14.804-16.752 9.028-.555 18.219.01 27.223 1.06 7.37.858 9.706 4.453 9.604 11.982-.072 5.285-.38 10.567-.85 16.133m-42.218-13.514c0 1.663.236 3.367-.044 4.981-.854 4.927 1.96 7.554 6.067 7.85 7.433.537 14.958.55 22.393.03 4.052-.282 6.937-2.77 6.19-7.774-.388-2.602.343-5.4-.214-7.939-.357-1.627-2.081-4.144-3.294-4.203-8.68-.428-17.389-.5-26.08-.315-3.821.081-5.465 2.675-5.018 7.37z"/><path fill="#4D1B21" d="M330.153 304.634c5.462-.074 10.747.147 16.766.492 1.845.386 2.956.648 4.067.91 1.78 3.132 3.558 6.264 5.358 10.212-.8 8.202 2.327 16.475-4.839 22.435-5.85.653-11.7 1.306-17.996 2.084-4.867.01-9.289-.105-14.175-.105-2.848-.412-5.289-.763-7.606-1.503-6.665-2.128-8.627-5.538-8.2-13.802.266-5.168 3.153-8.085 9.462-9.628 1.107-.27 2.175-.695 3.653-1.15 4.345-.022 8.297.055 13.162.25 6.408.117 11.902.117 17.396.117l.261-1.234c-.862-.489-1.684-1.3-2.592-1.412-4.865-.596-9.751-1.018-14.63-1.5-.088-1.957-.176-3.914-.087-6.166m-11.15 28.287c4.298-.044 8.596-.088 13.817.048 1.998-.004 3.996-.01 5.995-.012 8.758-.004 10.212-1.815 8.293-10.498-5.076 0-10.183 0-16.165-.245-4.288.02-8.576.04-13.61-.054-2.027 1.274-5.16.776-5.362 4.755-.248 4.86 2.853 5.222 7.032 6.006zM361.14 315.903c1.095-7.94 3.597-10.066 14.568-12.145 4.713-.033 9.023.045 13.789.043 4.7.353 8.99.524 13.176 1.282 5.426.981 8.323 4.676 8.37 10.11.06 6.82-.092 13.642.059 20.46.072 3.278-.89 4.943-4.474 4.957-3.869.014-4.242-2.209-4.186-5.209.096-5.155.028-10.313.03-15.47.002-7.718-.713-8.403-9.075-8.155-4.822.031-9.214-.07-14.072-.069-8.186-.255-9.118.619-9.118 8.225 0 4.977.175 9.963-.08 14.927-.111 2.193-1.091 4.342-2.22 6.594-6.462-.64-6.565-4.68-6.376-9.383.216-5.375-.232-10.776-.39-16.167z"/><path fill="#57272E" d="M52.237 334.67v-32.835c-5.912 0-11.357-.067-16.799.027-2.889.05-4.867-.486-4.762-4.049.096-3.298 2.019-3.697 4.644-3.689 14.147.042 28.295.058 42.441-.01 2.949-.015 4.813.64 4.743 4.115-.068 3.36-2.11 3.645-4.685 3.62-5.47-.053-10.943-.016-16.843-.016 0 11.396-.054 22.356.034 33.314.026 3.178-.21 5.511-4.399 5.5-4.173-.012-4.605-2.346-4.374-5.978z"/><path fill="#501E25" d="M242.573 293.996c5.411.007 10.448.108 16.404.192 4.923-.135 8.928-.251 12.932-.368 5.033.117 10.065.234 15.56.314 3.021 2.614 3.596 5.2-.137 7.755-6.462.1-12.582.1-18.882.1v16.872c0 5.658-.027 11.316.015 16.973.019 2.576-.37 4.737-4.364 4.754-3.87.056-4.515-1.802-4.523-4.514-.018-6.424-.22-12.847-.348-19.27l.668-15.037c-6.383 0-12.635 0-19.345.054-3.87-4.121-3.214-6.55 2.02-7.825zM604.232 307.08c1.333-1.056 2.666-2.112 4.766-3.195 1.179-2.978 1.592-5.928 2.005-8.877 6.502-1.969 7.44-1.102 7.295 7.586 4.21 1.043 8.443 1.268 12.675 1.494 1.117 1.04 2.233 2.08 3.012 3.621-.897 1.499-1.457 2.497-2.016 3.495-2.145.122-4.289.29-6.435.351-2.134.061-4.27.014-7.269.014 0 9.102 0 17.838-.651 26.999-2.422.424-4.192.424-6.617.424 0-7.776.08-14.994-.06-22.208-.033-1.644-.828-3.273-1.272-4.91-1.577-.53-3.154-1.062-4.742-2.288-.238-1.298-.465-1.902-.69-2.506z"/><path fill="#57272E" d="M603.842 307.21c.616.474.843 1.078 1.017 2.02-.842.02-2.24-.694-2.33-.555-2.23 3.412-5.63 2.876-8.955 2.966-6.457.175-7.442 1.27-7.444 7.57-.002 5.652-.106 11.307.044 16.955.086 3.202-1.12 4.49-4.367 4.46-3.192-.028-4.494-1.264-4.431-4.472.127-6.48.04-12.965.045-19.448.004-6.53 1.598-9.143 7.64-11.167 2.898-.97 6.048-1.286 9.113-1.627 3.595-.4 7.163-.348 9.668 3.299z"/><path fill="#501E25" d="M286.16 312.513c-3.685-.102-4.073 2.03-4.053 4.653.046 6.309-.06 12.62.057 18.927.058 3.08-.969 4.643-4.28 4.595-3.128-.046-4.553-1.323-4.52-4.496.074-7.138-.07-14.28.052-21.416.088-5.1 3.854-8.806 9.54-9.772 1.777-.301 3.549-.622 5.714-1.044 2.035-.092 3.858-.513 5.276.063 1.654.672 2.953 2.217 4.406 3.383-1.383 1.38-2.54 3.41-4.203 3.986-2.377.823-5.122.583-7.99 1.121z"/><path fill="#582930" d="M96.564 335.81c-.082-9.264-.164-18.53.111-28.338.225-.88.093-1.218-.04-1.556-.072-1.278-.18-2.555-.208-3.835-.037-1.757-.307-4.975.03-5.043 2.649-.534 5.418-.464 8.15-.58.08 1.994.235 3.99.193 5.98-.013.622-.836 1.24-.818 1.845.327 10.833.793 21.662 1.017 32.497.025 1.18-1.3 3.426-1.918 3.398-2.217-.1-4.4-.966-6.263-1.964.137-1.082-.058-1.743-.254-2.403z"/><path fill="#532228" d="M90.142 310.367c-2.817.4-5.635.799-9.164 1.016-4.745.222-6.29 2.267-6.074 6.458.367 7.148.177 14.324.221 21.488-2.47-.106-4.94-.212-7.135-.99.514-5.378.831-10.082.967-14.79.162-5.612-1.047-11.453 3.052-16.32.722-.422 1.443-.845 2.849-1.265 2.176-.354 3.668-.712 5.159-1.07 2.72-.325 5.44-.65 8.63-.51.811 2.304 1.153 4.143 1.495 5.983z"/><path fill="#57272E" d="M609.666 312.351c.443 1.16 1.238 2.789 1.27 4.433.141 7.214.061 14.432.061 22.208h6.4c-1.786.4-4.062 1.235-6.196.96-.707-.09-1.449-3.03-1.483-4.682-.152-7.478-.057-14.96-.052-22.919z"/><path fill="#A59696" d="M330.256 311.198c4.863.084 9.75.506 14.614 1.102.908.111 1.73.923 2.592 1.412l-.261 1.234c-5.494 0-10.988 0-16.947-.138-.303-1.162-.143-2.187.002-3.61z"/><path fill="#582930" d="M71.667 307.23c-3.758 4.866-2.548 10.707-2.71 16.319a154.32 154.32 0 0 1-1.057 14.369c-.476-7.774-.898-15.816-.501-23.817.116-2.349 2.552-4.583 4.268-6.87zM75.437 339.107c-.356-6.942-.166-14.118-.533-21.266-.215-4.191 1.329-6.236 5.641-6.489-3.809 1.413-4.806 4.146-4.582 8.316.344 6.383-.103 12.81-.526 19.439z"/><path fill="#57272E" d="M630.588 303.992c-3.847-.13-8.08-.355-12.405-.992 3.945.025 7.983.46 12.405.992zM610.66 295.14a37.647 37.647 0 0 1-1.29 8.784c.053-2.84.5-5.746 1.29-8.784z"/><path fill="#582930" d="M90.437 310.241c-.637-1.714-.979-3.553-1.38-5.786 2.961.925 4.246 2.74 1.38 5.786z"/><path fill="#A59696" d="M326.1 217.49c.377 1.09.507 2.365.496 3.87-.342-1.075-.543-2.38-.497-3.87zM329.094 280.488c.387 1.077.524 2.337.532 3.827-.346-1.062-.564-2.354-.532-3.827zM327.092 240.486c.383 1.09.517 2.361.512 3.863-.347-1.074-.555-2.377-.512-3.863zM328.093 261.487c.385 1.082.52 2.347.523 3.842-.346-1.067-.559-2.363-.523-3.842z"/><path fill="#582930" d="M79.664 304.894c-1.138.358-2.63.716-4.488 1.052 1.134-.365 2.635-.709 4.488-1.052z"/><path fill="#57272E" d="M632.205 311.313c.323-1.107.883-2.105 1.699-3.238a10.56 10.56 0 0 1-1.699 3.238z"/><path fill="#A59696" d="M330.113 298.46c.37.792.5 1.743.509 2.897-.331-.777-.54-1.758-.509-2.897zM325.135 191.473c.352.808.468 1.773.445 2.941-.319-.793-.5-1.788-.445-2.94z"/><path fill="#4D1B21" d="M96.456 336.072c.304.4.499 1.06.423 1.809-.358-.457-.444-1.002-.423-1.809z"/><path fill="#A59696" d="M327.609 163.23c-.32.258-.708.315-1.21.257.305-.229.722-.343 1.21-.257z"/><path fill="#4D1B21" d="M96.504 306.209c.264.045.396.382.288.815-.301-.111-.36-.317-.288-.815z"/><path fill="#511F24" d="M437.587 311.601c-3.11-.001-5.82-.295-8.42.112-1.456.228-2.73 1.616-4.087 2.481 1.162 1.082 2.243 2.977 3.501 3.103 4.937.496 9.936.332 14.9.614 3.934.223 7.965.285 11.747 1.235 5.117 1.286 6.82 5.254 6.493 10.361-.307 4.766-3.17 9.096-7.427 9.9-3.697.698-7.503 1.023-11.27 1.109-7.324.166-14.654-.011-21.98.08-2.964.036-4.846-.747-4.787-4.15.058-3.375 2.237-3.545 4.771-3.534 8.66.04 17.32-.041 25.978.047 3.235.032 6.073-.932 5.644-4.407-.157-1.266-3.553-2.848-5.587-3.037-7.398-.686-14.892-.446-22.258-1.322-6.118-.727-8.83-4.724-8.521-10.686.26-5 3.16-7.77 9.174-8.49 4.075-.487 8.173-.833 12.27-1.077 2.648-.159 5.532-.554 5.616 3.63.08 3.986-2.423 4.17-5.757 4.031z"/><path fill="#501E23" d="M193.904 340.561c-7.653 0-14.82-.048-21.985.025-2.9.029-4.887-.604-4.811-4.1.073-3.37 2.186-3.586 4.74-3.573 8.5.044 17-.046 25.5.05 3.107.036 6.192-.444 6.262-4.006.08-4.11-3.616-3.421-6.321-3.566-7.262-.387-14.579-.31-21.772-1.218-6.088-.768-8.709-4.78-8.375-10.824.275-4.968 3.125-7.608 9.337-8.323 4.407-.507 8.842-.765 13.266-1.111 2.796-.22 4.419.722 4.377 3.905-.042 3.25-1.88 3.855-4.564 3.797-3.332-.072-6.69-.245-9.987.098-1.29.134-2.446 1.549-3.663 2.38.97 1.018 1.819 2.728 2.935 2.925 3.39.6 6.88.708 10.336.834 3.33.12 6.666.012 10 .028 8.787.04 13.255 3.587 13.325 10.559.075 7.409-4.622 11.762-13.115 12.11-1.664.068-3.333.01-5.485.01z"/><path fill="#FCFCFC" d="M258.798 316.845c.56 6.382.762 12.805.78 19.229.008 2.712.653 4.57 4.175 4.623-2.944 17.364-6.23 34.611-9.7 51.822-.257 1.28-1.74 3.184-2.787 3.278-4.236.376-8.524.156-13.555.156 1.335-5.706 2.606-10.631 3.632-15.607 3.95-19.14 7.81-38.297 11.73-57.442.61-2.98.58-6.608 5.725-6.06zM360.766 315.952c.533 5.342.981 10.743.765 16.118-.19 4.702-.086 8.743 6.148 9.695 2.741 12.08 5.141 23.937 7.61 35.779.71 3.409 1.61 6.779 2.436 10.164.676 2.772-.383 4.159-3.254 4.127-.166-.002-.333.01-.5.007-13.998-.312-10.789 2.312-13.79-11.035-3.088-13.73-5.448-27.623-8.402-41.785 6.892-6.299 3.765-14.572 4.729-22.392 1.39-.5 2.638-.564 4.258-.678zM351.26 305.734c-1.385.04-2.496-.222-3.906-.663-2.153-13.828-4.112-27.463-5.828-41.129-1.382-11.002-2.47-22.041-3.784-33.943 3.655 0 6.828-.418 9.787.196 1.26.262 2.734 2.58 2.976 4.139 1.347 8.68 2.253 17.426 3.484 26.126 1.859 13.135 3.873 26.249 5.786 39.377.212 1.452.191 2.938.304 4.842-3.042.268-5.794.51-8.82 1.055zM271.904 293.395c-4 .542-8.004.658-12.468.704.665-9.283 1.756-18.501 2.925-27.71 1.17-9.212 2.565-18.398 3.583-27.626.75-6.802.55-6.823 7.317-6.812 1.635.003 3.27 0 6.01 0-2.503 20.722-4.937 40.87-7.367 61.444z"/><path fill="#FEFDFD" d="M149.907 332.71c-8.382-.282-16.765-.55-25.147-.854-3.529-.128-4.862-2.147-4.8-5.52.086-4.765.021-9.534.021-14.427 10.252 0 19.986 0 29.934.809.14 7.203.066 13.598-.008 19.993z"/><path fill="#F4DAAE" d="M150.286 332.698c-.305-6.382-.231-12.777-.088-19.632 1.409.948 3.673 2.221 3.905 3.793.568 3.852.526 7.883.038 11.754-.187 1.48-2.262 2.722-3.855 4.085z"/><path fill="#FEFDFD" d="M479.873 311.769c7.625-.075 15.251-.234 22.876-.189 4.026.024 6.63 1.651 6.154 6.345-.25 2.463-.044 4.973-.045 7.461-.002 6.137-1.11 7.384-7.461 7.527-6.467.146-12.94.02-19.915-.5-.873-7.225-1.241-13.935-1.61-20.644z"/><path fill="#DEC6A8" d="M479.48 311.776c.76 6.702 1.129 13.412 1.54 20.573-2.05.452-4.146.452-6.757.452 0-5.886-.331-11.494.22-17.014.148-1.473 2.997-2.677 4.998-4.011z"/><path fill="#FBFAFA" d="M531.267 319.318c-.447-4.251 1.197-6.845 5.017-6.926 8.692-.184 17.401-.113 26.08.315 1.214.06 2.938 2.576 3.295 4.203.557 2.538-.174 5.337.214 7.94.747 5.004-2.138 7.491-6.19 7.774-7.435.518-14.96.506-22.393-.03-4.106-.297-6.921-2.924-6.067-7.85.28-1.615.044-3.319.044-5.426z"/><path fill="#B3B0B0" d="M331.818 322.459h15.29c1.919 8.683.465 10.494-8.293 10.498-1.999.002-3.997.008-6.412-.512-.472-3.678-.529-6.832-.585-9.986z"/><path fill="#FBFAFA" d="M331.38 322.336c.494 3.277.55 6.43.562 10.02-4.343.477-8.64.521-13.437.063-.474-3.716-.45-6.93-.425-10.145 4.287-.02 8.575-.04 13.3.062z"/><path fill="#DEC6A8" d="M317.706 322.217c.35 3.271.325 6.486.345 10.138-3.227-.218-6.328-.58-6.08-5.44.202-3.979 3.335-3.481 5.735-4.698z"/></svg>