<?xml version="1.0"?><svg version="1.2" baseProfile="tiny-ps" viewBox="0 0 300 300" xmlns="http://www.w3.org/2000/svg" xmlns:xlink="http://www.w3.org/1999/xlink"><title>TribsTransport</title><g><g fill="#fefefd" transform="matrix(.1 0 0 -.1 0 300)"><path d="M0 1500V680h3000v1640H0v-820z"/></g><g fill="#e7e1db" transform="matrix(.1 0 0 -.1 0 300)"><path d="m1397 2254-7-7v-116c0-64-3-207-7-318l-6-203h-45l-5 28c-3 15-2 101 3 192s11 223 15 293l5 128-22-3-23-3-7-75c-4-41-10-99-14-127l-5-53h-47l4 38c3 20 8 74 13 120l7 82h-17c-10 0-20-4-23-8-3-5-14-69-26-143-11-74-32-192-46-264l-26-130-15-24-15-23 5-20 6-20-39-131c-48-163-75-241-130-380l-43-108 39-40c41-42 72-64 81-56 2 3 19 58 37 124l33 118 36 3 35 3-32-128c-18-70-36-138-40-151l-7-22 63-29c35-16 73-32 84-35l21-7 7 40c10 67 56 528 64 651l7 115 28 3 27 3v-53c0-65-27-502-40-657-6-63-9-115-7-117s42-7 89-10l85-7 6 9c3 5-3 126-13 269s-21 297-23 343l-5 82h57l5-32c3-18 14-132 25-254 12-121 26-260 33-308l11-88 31 5c17 3 56 15 87 26l56 21-43 168c-24 92-44 170-44 175 0 4 16 7 35 7h35v-12c0-19 80-282 88-290l7-7 57 42 58 42v13c0 7-8 29-19 50-30 59-116 296-156 427-19 66-38 128-41 138l-5 17h57l58-172c50-151 142-377 161-396l7-7 29 35c65 79 131 235 148 348l6 47 72 6 71 5 16 13 16 13v117l-22 15-22 16h-136l-6 28c-18 84-40 146-77 217l-41 80-96 96-95 96-94 46c-51 26-100 47-108 47h-15l6-47c15-107 60-345 86-450l27-113h-56l-5 18c-23 78-105 542-106 598 0 13-38 26-44 16-1-4 2-60 8-124l11-118h-43l-6 28c-3 15-8 71-12 125l-6 99-15 5-14 6-9-9-9-9 9-215c6-118 12-272 15-342l5-128h-49l-6 53c-3 28-9 185-13 347l-7 295-15 3c-9 1-19 0-23-4zm207-336c3-13 12-77 21-143s19-133 22-148l6-29-29 4-29 3-12 85c-6 47-16 122-20 168l-9 82h46l4-22zm-334-22c0-35-16-173-25-213l-5-23h-52l6 33c3 17 10 73 16 122 6 50 13 96 15 103l4 12h41v-34zm1058-373 3-43h-121v91l58-3 57-3 3-42zm-659-93 18-15 17-80c9-45 19-91 23-103l5-22h-68l-22 117-22 117 10 10 10 10 2 46 2 45 3-55 4-55 18-15zm-475 5 13-10-18-95c-10-52-21-105-24-117l-5-23h-63l6 33c10 54 57 270 64 297l8 25 3-50 3-50 13-10zm326 65v-20h-60v40h60v-20zm-426 671c-197-108-339-288-389-492l-17-69H551l-3 23-3 22h-40l-3-91-3-90 21-19 20-18 73-5 73-4 12-74 11-74 30-71c16-38 44-92 62-120l32-50 8 13c20 31 131 323 164 433 59 195 118 459 149 673l6 42h-7c-5 0-31-13-59-29zm-414-646v-46l-62 3-63 3-3 43-3 42h131v-45zm-546 121c-3-8-3-20 1-26l6-10h88l3-87 3-88h40l3 88 3 87h61l-21-18-22-17 3-70 3-70h40l3 60 3 60 12 7c7 4 22 8 35 8h22v40h-47l1 23 1 22-118 3-117 3-6-15zm2660-10-6-26h-96l-21-18-22-17 3-70 3-70h40l3 60 3 60 12 7c7 4 27 8 45 8h32v-57c0-32 4-64 9-71l8-14 19 4 19 3 3 68 3 67h70l-3 18-3 17-32 3-32 3-3 22-3 22-22 3-22 3-7-25zm-2359 2c-2-7-3-56-2-108l2-95 23-3 22-3 2 90c1 50 2 99 2 109l1 17-23 3-22 3-5-13zm1980-53-25-24v-81l19-19 20-20 36-7c20-3 60-4 90-2l54 5 15 12 16 13v125l-25 11-26 12h-150l-24-25zm159-21 16-6v-78h-140v78l13 5c18 8 93 8 111 1z"/></g><g fill="#f5dbae" transform="matrix(.1 0 0 -.1 0 300)"><path d="M1315 2240c-7-11-24-170-25-222v-28h-62l6 78c4 42 9 97 13 121l6 43-19-10-19-10-18-124c-10-68-31-191-47-273l-30-150-15-11-16-12 6-25 7-26-37-128c-39-138-107-331-150-428l-27-60 49-42c26-24 53-43 58-43h10l35 122 36 123 37 3 37 3v-18c0-10-16-79-36-153l-35-134 17-13c10-7 42-22 72-33l55-21 7 8c10 10 45 346 75 715l7 77 26 3 27 3v29l-22 6-22 5 4 145c1 80 6 223 10 318l8 172h-11c-6 0-14-5-17-10zm-35-318c0-30-31-255-36-264-6-10-51-11-57 0-3 4 1 43 8 87s16 106 20 138l6 57h59v-18zm-90-426v-54l12-4 12-4-25-125-24-124-37-3-38-3v7c0 10 70 336 75 352 2 6 9 12 15 12h10v-54zm206 602c-3-84-11-281-16-438-6-157-18-384-26-505s-17-264-21-318l-6-97h179l-7 78c-10 96-39 546-39 590v32h61l4-12c3-7 14-113 25-235 20-220 45-432 52-438 1-2 38 8 81 22l79 24-6 22c-34 122-83 324-79 330 2 4 17 7 32 7h29l9-12c5-7 27-75 48-151s42-140 46-142c4-3 32 14 62 36l56 42-16 36c-73 167-182 477-199 566l-6 36 31-3 32-3 57-170c54-159 151-395 162-395 10 0 90 127 120 192l32 67 17 88 18 88 69 3 69 3 17 16 18 16v106l-30 16-29 15h-131v23c0 75-83 251-166 351l-55 67-62 46c-66 48-136 86-198 109l-38 13 4-27c3-15 16-94 30-177 21-125 61-313 81-387l5-18h-35c-20 0-36 3-36 6s-15 81-34 172c-19 92-41 221-51 287-9 66-18 130-21 143l-4 22h-32l6-52c3-29 9-86 12-126l7-74-29 4-29 3-8 75c-4 41-10 99-13 128l-5 52h-29v-52c0-29 5-147 10-263 6-115 12-247 13-292l3-83h-64l-6 218c-3 119-9 274-12 345l-6 127h-26l-6-152zm235-323 25-175h-33c-18 0-33 1-33 3 0 1-9 69-20 151-11 81-20 159-20 172v24h56l25-175zm697-252 3-43h-119l-6 23c-3 12-6 32-6 45v23l63-3 62-3 3-42zm-668-24v-52l15-11 14-11 21-95c11-52 23-103 26-112l5-18h-79l-12 53c-6 28-16 83-23 120l-11 68 12 19 12 20v70h20v-51zm-137 1 5-20h-68v40h58l5-20zm-442 660c-83-46-159-109-218-180l-54-65-40-81-40-80-18-70-18-69-72-3-71-3v42l-22-3-23-3-3-80-3-80 14-20 15-19 78-5 78-6 13-65c24-118 73-241 120-299l20-24 53 129c100 245 185 545 235 834 27 155 29 180 18 180-5 0-32-14-62-30zm-391-635v-46l-67 3-68 3-3 43-3 42h141v-45zm-555 115c-3-5-3-14 0-20l6-10h89v-170h50v170l43-1h42l-25-10c-35-14-40-26-40-96v-63h49l3 62 3 63 30 5 30 5 3 18 3 17h-49l5 20 5 20H141l-6-10zm310 2-10-7 3-97 3-98h38l3 95c2 53 2 100 0 105-4 12-23 13-37 2zm2355-12c0-11-3-20-7-21-5 0-31-2-60-3l-52-3-16-13-15-12v-139l23 3 22 3 5 60 5 59 34 7c19 4 40 5 48 2l13-5v-128h40v129l38 3 37 3v30l-37 3-38 3v39h-40v-20zm-367-34-33-15v-108l18-16 19-17h172l15 16 16 15v107l-16 13-17 14-71 3-71 2-32-14zm155-35 13-8-3-34-3-34h-150l-3 28-3 28 12 15 11 14h57c31 0 62-4 69-9z"/></g><g fill="#b8b6b5" transform="matrix(.1 0 0 -.1 0 300)"><path d="M1315 2240c-7-11-24-170-25-222v-28h-62l6 78c4 42 9 97 13 121l6 43-19-10-19-10-18-124c-10-68-31-191-47-273l-30-150-15-11-16-12 6-25 7-26-37-128c-39-138-107-331-150-428l-27-60 49-42c26-24 53-43 58-43h10l35 122 36 123 37 3 37 3v-18c0-10-16-79-36-153l-35-134 17-13c10-7 42-22 72-33l55-21 7 8c10 10 45 346 75 715l7 77 26 3 27 3v29l-22 6-22 5 4 145c1 80 6 223 10 318l8 172h-11c-6 0-14-5-17-10zm-35-318c0-30-31-255-36-264-6-10-51-11-57 0-3 4 1 43 8 87s16 106 20 138l6 57h59v-18zm-90-426v-54l12-4 12-4-25-125-24-124-37-3-38-3v7c0 10 70 336 75 352 2 6 9 12 15 12h10v-54zm300 702c0-29 5-147 10-263 6-115 12-247 13-292l3-83h-93l-16-18-17-19v-62l22-12 22-12 43 2 44 1 4-12c3-7 14-113 25-235 20-220 45-432 52-438 1-2 38 8 81 22l79 24-6 22c-34 122-83 324-79 330 2 4 17 7 32 7h29l9-13c5-6 27-74 48-150s42-140 46-142c4-3 32 14 62 36l56 42-16 36c-73 167-182 477-199 566l-6 36 48-3 49-3 5-65 5-65h40l3 71 3 71-17 14-16 13-69 4c-38 3-69 6-69 9 0 2-15 80-34 171-19 92-41 221-51 287-9 66-18 130-21 143l-4 22h-32l6-52c3-29 9-86 12-126l7-74-29 4-29 3-8 75c-4 41-10 99-13 128l-5 52h-29v-52zm141-423 25-175h-33c-18 0-33 1-33 3 0 1-9 69-20 151-11 81-20 159-20 172v24h56l25-175zm29-276v-52l15-11 14-11 21-95c11-52 23-103 26-112l5-18h-79l-12 53c-6 28-16 83-23 120l-11 68 12 19 12 20v70h20v-51zm-137 1 5-20h-88v13c0 21 10 27 46 27h32l5-20zM135 1640c-3-5-3-14 0-20l6-10h89v-170h50v170l43-1h42l-25-10c-35-14-40-26-40-96v-63h49l3 62 3 63 30 5 30 5 3 18 3 17h-49l5 20 5 20H141l-6-10zm310 2-10-7 3-97 3-98h38l3 95c2 53 2 100 0 105-4 12-23 13-37 2zm62 1c-4-3-7-41-7-83v-76l14-19 13-18 81-6 81-6 26 8 25 9 6 22c3 12 4 42 2 67l-3 44-25 12-25 13H550v40h-18c-10 0-22-3-25-7zm191-121 3-43-73 3-73 3-3 43-3 43 73-3 73-3 3-43zm2102 108c0-11-3-20-7-21-5 0-31-2-60-3l-52-3-16-13-15-12v-139l23 3 22 3 5 60 5 59 34 7c19 4 40 5 48 2l13-5v-128h40v129l38 3 37 3v30l-37 3-38 3v39h-40v-20zm-2010-33-25-13v-58l25-13 25-13h115v-19l-82-3-83-3v-40l74-3 75-3 27 12 28 11 6 19c4 10 3 28 0 40l-7 20-25 10c-13 5-49 9-79 9h-54v20h80v40h-75l-25-13zm1150 4-25-7v-68l25-13 25-13h119l-10-10-9-9-75-3-75-3v-40l75-3 75-2 25 13 25 12 3 32 3 31-23 16-22 16h-127l6 10 6 10h80l-3 18-3 17-35 2c-19 1-46-2-60-6zm230 2c-8-3-21-12-27-21l-13-16v-162l11-11 11-11 14 5 14 5v36l23 6c12 3 49 6 83 6h61l16 18 17 19v102l-30 16-29 15-68-1c-37 0-75-3-83-6zm158-80 3-43h-151v78l13 6c6 2 39 4 72 3l60-2 3-42zm105 73-33-15v-108l18-16 19-17h172l15 16 16 15v107l-16 13-17 14-71 3-71 2-32-14zm155-35 13-8-3-34-3-34h-150l-3 28-3 28 12 15 11 14h57c31 0 62-4 69-9z"/></g><g fill="#846161" transform="matrix(.1 0 0 -.1 0 300)"><path d="M140 1636v-15l48-3 47-3 3-88 3-88 17 3 17 3 3 88 3 87h89v30H140v-14zm305 5-10-10 3-95 3-96h40l-3 102-3 101-10 4c-6 2-15-1-20-6zm65-80v-90l22-15 22-16h156l20 20 20 20v43c0 51-7 63-43 76l-28 11H552l-5 20-5 20h-32v-89zm185-41v-45l-40-3c-21-2-54-1-72 3l-33 6v90l73-3 72-3v-45zm397 113 4-18 47 1h47v-176h40v177l25-5c13-2 36-1 50 2l25 6v30h-241l3-17zm1708 1c0-8-7-23-16-31l-16-16-8 13-8 13-36-7c-19-4-42-14-51-22l-15-15v-129h39l3 62 3 63 40 6c22 4 45 4 52 2l13-5v-128h40v130h70v40h-70v40h-40v-16zm-2445-31c-11-3-26-10-32-15l-13-10v-139l17 3 17 3-2 50c-3 60 4 72 43 77l30 3v30l-20 2c-11 0-29-1-40-4zm450 0c-42-11-56-40-35-73l9-15 73-5 73-5v-30l-82-3-83-3v-29h186l12 12 12 12v54l-13 10-13 11-64 3-63 3-5 13-4 12h83l-3 18-3 17-30 2c-17 0-39-1-50-4zm485-4c-35-14-40-26-40-96v-63h49l3 62 3 63 30 5 30 5v30l-25 2c-14 1-36-2-50-8zm225 1c-11-17 5-30 38-32 18 0-5-4-49-7l-82-7-16-13-16-13v-57l22-15 22-16h174l9 13c6 6 13 35 16 63l6 50-8 12c-15 24-104 41-116 22zm75-99v-18l-46-7c-62-8-86-7-103 3l-14 9 6 16 6 16h151v-19zm100 97-25-14-3-72-3-72h40l3 63 3 62h140l3-62 3-63h39v126l-14 19-14 20-74 3-73 3-25-13zm265 5c-11-3-26-10-32-15l-13-10v-47l13-8c6-4 44-10 82-13l70-5v-30l-82-3-83-3v-30l97 3 98 3 9 28 10 28-10 17-11 17-54 3c-68 3-99 10-99 22v9l43 3 42 3v30l-30 2c-16 0-39-1-50-4zm215-6-25-13-3-98-3-98 18 4 18 3 3 23 3 22h168l15 22 16 22v41c0 49-7 61-43 74l-28 11h-114l-25-13zm168-71 3-39-13-8-13-9h-135v43c0 24 3 47 7 51l7 7 71-3 70-3 3-39zm112 77c-8-3-23-12-32-21l-18-15v-96l22-15 22-16h152l22 16 22 15v47c0 56-6 67-43 81l-28 11-52-1c-29 0-59-3-67-6zm148-73 4-34-18-13-18-13h-44c-24 0-52 5-63 10l-19 11v33c0 18 3 36 7 40l7 7 71-3 70-3 3-35z"/></g><g fill="#4d1a21" transform="matrix(.1 0 0 -.1 0 300)"><path d="M147 1643c-4-3-7-10-7-15v-8h100v-180h30v180h100v30H262c-60 0-112-3-115-7zm370 0c-10-9-8-155 1-170 20-31 128-44 191-22l31 11v117l-12 8c-7 4-51 10-98 13l-85 5-3 23c-3 22-13 28-25 15zm177-76 17-13-3-39-3-40-68-3-69-3-14 12-14 11v38c0 20 3 40 7 43 3 4 34 7 68 7h61l18-13zm403 77c-3-4-4-11-1-15l5-9h88l3-87 3-88h30l3 87 3 87 47 3 47 3v20l-111 3-110 3-7-7zm1710 0c-4-4-7-15-7-25 0-9-6-20-12-22l-13-5 12-9 12-9 3-64 3-65 17-3 17-3 3 68 3 68 33 3 32 3v19h-69l-3 22c-3 22-19 33-31 22zM441 1540l-2-100h31v84c0 46 3 91 6 100l6 16h-40l-1-100zm-113 49-18-10v-139h29l3 63 3 62 33 10c17 5 32 13 32 17v8h-32c-18 0-41-5-50-11zm454-1c-6-6-12-22-12-35v-23l26-10c14-6 49-10 78-10 57 0 67-5 59-26l-5-14H770v-30h156l22 16 22 15v48l-12 7c-7 5-44 11-82 14l-69 5-4 12-4 12 43 3 43 3v20l-45 3-45 3-13-13zm496 1-18-10v-139h29l3 63 3 62 33 10c17 5 32 13 32 17v8h-32c-18 0-41-5-50-11zm242-4v-15h70v-20h-166l-12-12-12-12v-64l31-11 32-11h123l22 16 22 15v108l-19 11c-11 5-36 10-55 10h-36v-15zm75-85v-25h-160l-3 19-4 19 14 8 13 9 70-2 70-3v-25zm80 84-16-16 3-62 3-61h30l3 61 3 62 33 6 34 7 41-7 41-7v-127h30v136l-12 12-12 12h-165l-16-16zm250 0-16-16 3-16 3-16 25-13 25-13h116l-3-17-3-18-78-5-77-5-3-10-2-10 70-3c38-2 80 0 93 3l23 6 11 25 12 26-23 19-23 19h-128v29l37 3 36 3 5 13 4 12h-91l-16-16zm231 0-16-15v-179h30l6 25 6 25h137l25 10 26 10v119l-19 11-20 10h-160l-15-16zm172-13 13-8-3-44-3-44-77-3-78-3v99l13 5c20 9 121 7 135-2zm92 9-20-20v-77l21-19 21-19h155l16 14 17 13v107l-19 11-20 10h-151l-20-20zm158-6 23-7-3-46-3-46h-150l-3 40-3 39 17 13 18 13h40c23 0 51-3 64-6zm100 15-18-10v-139h30v129l35 7c19 3 35 10 35 15v9h-32c-18 0-41-5-50-11z"/></g></g></svg>